# Blender v3.0.1 OBJ File: 'map_highway_entry.blend'
# www.blender.org
mtllib map_highway_entry.mtl
o Cube.001
v -39.801250 -5.449755 21.521524
v -39.801250 -5.449755 -21.521524
v 48.752762 -15.586719 34.315674
v 48.752762 -15.586719 -34.315674
v 0.000000 -12.601529 -50.000000
v 0.000000 -12.601529 50.000000
v -35.865467 5.449755 18.926819
v -39.801250 2.287032 21.521524
v -35.865467 5.449755 -18.926817
v -39.801250 2.287032 -21.521524
v 41.735661 5.449757 28.925207
v 41.915409 2.287080 34.315674
v 41.915409 2.287080 -34.315674
v 41.735661 5.449757 -28.925207
v 0.000000 2.287033 -50.000000
v 0.000000 5.449756 -44.600342
v 0.000000 2.287033 50.000000
v 0.000000 5.449756 44.600342
vt 0.750000 0.513499
vt 0.862639 0.523039
vt 0.862639 0.726961
vt 0.750000 0.736501
vt 0.375000 0.750000
vt 0.618596 0.750000
vt 0.617536 0.875000
vt 0.375000 0.875000
vt 0.375000 0.000000
vt 0.612639 0.000000
vt 0.612639 0.250000
vt 0.375000 0.250000
vt 0.250000 0.500000
vt 0.375000 0.500000
vt 0.250000 0.750000
vt 0.617536 0.375000
vt 0.375000 0.375000
vt 0.618596 0.500000
vt 0.625000 0.519636
vt 0.625000 0.730364
vt 0.125000 0.500000
vt 0.125000 0.750000
vt 0.625000 0.015070
vt 0.625000 0.234930
vt 0.625000 0.378535
vt 0.625000 0.500000
vt 0.625000 0.880805
vt 0.625000 0.993457
vt 0.612639 1.000000
vt 0.625000 0.256543
vt 0.625000 0.369195
vt 0.625000 0.750000
vt 0.625000 0.871465
vt 0.375000 1.000000
vn -0.0000 1.0000 0.0000
vn 0.3282 0.0685 0.9421
vn -1.0000 0.0000 0.0000
vn -0.0611 -0.9981 0.0000
vn -0.5819 0.0000 -0.8133
vn 0.9477 0.3192 0.0000
vn -0.1769 -0.9842 0.0000
vn 0.3282 0.0685 -0.9421
vn -0.6264 0.7795 0.0000
vn 0.1854 0.8491 -0.4947
vn -0.3399 0.8117 0.4749
vn -0.3399 0.8117 -0.4749
vn 0.1854 0.8491 0.4947
vn -0.5819 0.0000 0.8133
usemtl None
s off
f 16/1/1 9/2/1 7/3/1 18/4/1
f 3/5/2 12/6/2 17/7/2 6/8/2
f 1/9/3 8/10/3 10/11/3 2/12/3
f 5/13/4 4/14/4 3/5/4 6/15/4
f 2/12/5 10/11/5 15/16/5 5/17/5
f 4/14/6 13/18/6 14/19/6 11/20/6 12/6/6 3/5/6
f 2/21/7 5/13/7 6/15/7 1/22/7
f 5/17/8 15/16/8 13/18/8 4/14/8
f 14/19/1 16/1/1 18/4/1 11/20/1
f 7/23/9 9/24/9 10/11/9 8/10/9
f 16/25/10 14/26/10 13/18/10 15/16/10
f 18/27/11 7/28/11 8/29/11 17/7/11
f 9/30/12 16/31/12 15/16/12 10/11/12
f 11/32/13 18/33/13 17/7/13 12/6/13
f 6/8/14 17/7/14 8/29/14 1/34/14
