# Blender v3.0.1 OBJ File: 'map_spawn.blend'
# www.blender.org
mtllib map_spawn.mtl
o Cube_Cube.001
v -70.346588 -13.090882 0.226427
v -88.698936 -21.514898 -44.503418
v 70.346588 -13.090882 0.226427
v 88.698936 -21.514898 -44.503418
v -71.152542 1.531393 0.226427
v -75.087296 0.952050 0.226427
v -77.956696 -1.671587 0.226427
v -79.071770 -4.669465 0.226429
v -99.700386 -4.669465 -44.503422
v -98.294403 -1.671587 -44.503418
v -94.676422 0.952050 -44.503418
v -89.715157 1.531393 -44.503418
v 79.071770 -4.669465 0.226429
v 77.956696 -1.671587 0.226427
v 75.087296 0.952050 0.226427
v 71.152542 1.531393 0.226427
v 89.715157 1.531393 -44.503418
v 94.676422 0.952050 -44.503418
v 98.294403 -1.671587 -44.503418
v 99.700386 -4.669465 -44.503422
v -48.081882 -13.090882 4.293467
v 48.081882 -13.090882 4.293467
v -51.322155 0.952050 4.293463
v -48.632751 1.531394 4.293467
v -54.045540 -4.669465 4.293467
v -53.283386 -1.671587 4.293467
v 48.632751 1.531394 4.293467
v 51.322155 0.952050 4.293463
v 53.283386 -1.671587 4.293467
v 54.045540 -4.669465 4.293467
v -20.804306 -12.626611 71.997345
v 20.804304 -12.626611 71.997345
v -21.042660 1.531398 71.997345
v 21.042656 1.531398 71.997345
v -88.271469 57.816242 28.813702
v -83.645828 58.812683 28.813705
v -92.955551 -5.624257 28.813705
v -91.644684 53.303722 28.813705
v 83.645828 58.812683 28.813705
v 88.271469 57.816242 28.813702
v 91.644684 53.303722 28.813705
v 92.955551 -5.624257 28.813705
v 82.698364 -20.108662 28.813705
v -82.698364 -20.108662 28.813705
v -35.782333 -19.310137 103.726051
v 35.782333 -19.310137 103.726051
v -38.193733 60.046120 100.043510
v -36.192287 58.812691 96.368996
v 36.192287 58.812691 96.368996
v 38.193733 60.046120 100.043510
v -292.144653 -5.440687 293.304199
v -288.024811 53.487293 293.304199
v 288.024811 53.487293 293.304199
v 292.144653 -5.440687 293.304199
v 82.698364 -19.925091 150.920929
v 88.271469 65.801453 150.920898
v -88.271469 65.801453 150.920898
v -82.698364 -19.925091 150.920929
v -35.782333 -19.126566 225.833252
v 35.782333 -19.126566 225.833252
v -40.220459 -5.440679 374.765656
v -39.653278 99.174736 365.991516
v 39.653271 99.174736 365.991516
v 40.220467 -5.440679 374.765656
v 38.193733 103.687248 222.150726
v -38.193733 103.687248 222.150726
vt 0.375000 0.000000
vt 0.623118 0.000000
vt 0.623118 0.250000
vt 0.375000 0.250000
vt 0.624397 0.255995
vt 0.624468 0.256792
vt 0.625000 0.271190
vt 0.625000 0.478810
vt 0.624468 0.493208
vt 0.624397 0.494005
vt 0.623118 0.500000
vt 0.375000 0.500000
vt 0.125000 0.500000
vt 0.375000 0.750000
vt 0.125000 0.750000
vt 0.631260 0.500000
vt 0.631260 0.750000
vt 0.630391 0.750000
vt 0.630391 0.500000
vt 0.646190 0.500000
vt 0.853810 0.500000
vt 0.853810 0.750000
vt 0.646190 0.750000
vt 0.623118 0.750000
vt 0.624468 0.000000
vt 0.624468 0.250000
vt 0.624397 0.250000
vt 0.624397 0.000000
vt 0.625000 0.000000
vt 0.625000 0.250000
vt 0.623118 0.750000
vt 0.375000 0.750000
vt 0.125000 0.750000
vt 0.375000 0.750000
vt 0.125000 0.750000
vt 0.623118 0.000000
vt 0.624397 0.000000
vt 0.375000 0.000000
vt 0.646190 0.750000
vt 0.631260 0.750000
vt 0.624468 0.000000
vt 0.625000 0.000000
vt 0.630391 0.750000
vt 0.853810 0.750000
vt 0.375000 0.750000
vt 0.125000 0.750000
vt 0.853810 0.750000
vt 0.646190 0.750000
vt 0.623118 0.750000
vt 0.375000 0.750000
vt 0.853810 0.750000
vt 0.646190 0.750000
vt 0.630391 0.750000
vt 0.646190 0.750000
vt 0.631260 0.750000
vt 0.853810 0.750000
vt 0.623118 0.000000
vt 0.624397 0.000000
vt 0.375000 0.000000
vt 0.630391 0.750000
vt 0.623118 0.750000
vt 0.624468 0.000000
vt 0.624397 0.000000
vt 0.624468 0.000000
vt 0.625000 0.000000
vt 0.624468 0.000000
vt 0.625000 0.000000
vt 0.125000 0.750000
vt 0.125000 0.750000
vt 0.125000 0.750000
vt 0.631260 0.750000
vt 0.375000 0.750000
vt 0.375000 0.750000
vt 0.623118 0.000000
vt 0.631260 0.750000
vt 0.624468 0.993208
vt 0.624468 0.756792
vt 0.625000 0.771190
vt 0.625000 0.978810
vt 0.624468 0.993208
vt 0.624468 0.756792
vt 0.623118 0.750000
vt 0.623118 1.000000
vt 0.375000 1.000000
vt 0.630391 0.750000
vt 0.624397 0.000000
vt 0.624468 0.000000
vt 0.623118 0.000000
vt 0.375000 0.000000
vt 0.375000 0.000000
vt 0.631260 0.750000
vt 0.624397 0.994005
vt 0.624397 0.755995
vn -0.7315 -0.5711 0.3725
vn 0.0000 0.0000 -1.0000
vn 0.0000 -0.9827 0.1851
vn 0.6055 0.7486 0.2702
vn 0.0000 1.0000 0.0000
vn 0.7315 -0.5711 0.3725
vn -0.6055 0.7486 0.2702
vn -0.1290 0.9901 0.0550
vn -0.8493 0.3571 0.3889
vn 0.1290 0.9901 0.0550
vn 0.8493 0.3571 0.3889
vn 0.1677 -0.1462 0.9749
vn 0.0000 -1.0000 0.0069
vn 0.0000 -1.0000 0.0000
vn -0.1613 0.0505 0.9856
vn -0.1677 -0.1462 0.9749
vn 0.1230 0.7034 0.7001
vn -0.1230 0.7034 0.7001
vn 0.1637 0.1507 0.9749
vn 0.1613 0.0505 0.9856
vn -0.1637 0.1507 0.9749
vn 0.0000 -0.9785 -0.2061
vn 0.4934 -0.3494 -0.7965
vn 0.0000 0.3915 -0.9202
vn 0.5269 0.0176 -0.8497
vn -0.7531 0.5081 -0.4179
vn 0.0760 0.3528 -0.9326
vn 0.7531 0.5081 -0.4179
vn -0.5269 0.0176 -0.8497
vn -0.4934 -0.3494 -0.7965
vn 0.8003 0.0369 -0.5985
vn -0.1492 0.9841 -0.0966
vn 0.0193 0.9994 -0.0296
vn 0.0146 -0.9999 0.0015
vn 0.1492 0.9841 -0.0966
vn 0.0000 -1.0000 0.0015
vn -0.0146 -0.9999 0.0015
vn -0.8003 0.0369 -0.5985
vn -0.0193 0.9994 -0.0296
vn 0.2880 0.2153 -0.9331
vn -0.1766 -0.9808 -0.0832
vn -0.2880 0.2153 -0.9331
vn -0.0760 0.3528 -0.9326
vn 0.1766 -0.9808 -0.0832
vn 0.0000 0.9480 -0.3182
vn 0.0000 0.9417 -0.3366
vn 0.1924 -0.9764 -0.0982
vn 0.0000 -0.9958 0.0915
vn 0.2989 0.0597 0.9524
vn -0.2233 0.9696 -0.1000
vn 0.0345 -0.9969 0.0711
vn -0.2989 0.0597 0.9524
vn -0.0345 -0.9969 0.0711
vn 0.2233 0.9696 -0.1000
vn 0.0000 0.9995 0.0314
vn 0.0000 0.0836 0.9965
vn 0.0972 0.9737 -0.2058
vn -0.0972 0.9737 -0.2058
vn -0.1924 -0.9764 -0.0982
usemtl None
s off
f 1/1/1 8/2/1 9/3/1 2/4/1
f 2/4/2 9/3/2 10/5/2 11/6/2 12/7/2 17/8/2 18/9/2 19/10/2 20/11/2 4/12/2
f 2/13/3 4/12/3 3/14/3 1/15/3
f 18/16/4 15/17/4 14/18/4 19/19/4
f 17/20/5 12/21/5 5/22/5 16/23/5
f 4/12/6 20/11/6 13/24/6 3/14/6
f 6/25/7 11/26/7 10/27/7 7/28/7
f 5/29/8 12/30/8 11/26/8 6/25/8
f 9/3/9 8/2/9 7/28/9 10/27/9
f 17/20/10 16/23/10 15/17/10 18/16/10
f 13/24/11 20/11/11 19/19/11 14/18/11
f 3/14/12 13/24/12 30/31/12 22/32/12
f 21/33/13 22/32/13 32/34/13 31/35/13
f 1/15/14 3/14/14 22/32/14 21/33/14
f 7/28/15 8/2/15 25/36/15 26/37/15
f 8/2/16 1/1/16 21/38/16 25/36/16
f 15/17/17 16/23/17 27/39/17 28/40/17
f 5/29/18 6/25/18 23/41/18 24/42/18
f 14/18/19 15/17/19 28/40/19 29/43/19
f 16/23/5 5/22/5 24/44/5 27/39/5
f 13/24/20 14/18/20 29/43/20 30/31/20
f 6/25/21 7/28/21 26/37/21 23/41/21
f 31/35/22 32/34/22 46/45/22 45/46/22
f 27/39/5 24/44/5 33/47/5 34/48/5
f 22/32/23 30/31/23 42/49/23 43/50/23
f 34/48/24 33/47/24 48/51/24 49/52/24
f 30/31/25 29/43/25 41/53/25 42/49/25
f 27/39/26 34/48/26 49/52/26 39/54/26
f 28/40/27 27/39/27 39/54/27 40/55/27
f 33/47/28 24/44/28 36/56/28 48/51/28
f 26/37/29 25/36/29 37/57/29 38/58/29
f 25/36/30 21/38/30 44/59/30 37/57/30
f 42/49/31 41/53/31 53/60/31 54/61/31
f 35/62/32 38/58/32 52/63/32 57/64/32
f 36/65/33 35/62/33 47/66/33 48/67/33
f 44/68/34 45/46/34 59/69/34 58/70/34
f 41/53/35 40/55/35 56/71/35 53/60/35
f 45/46/36 46/45/36 60/72/36 59/69/36
f 46/45/37 43/50/37 55/73/37 60/72/37
f 38/58/38 37/57/38 51/74/38 52/63/38
f 40/55/39 39/54/39 49/52/39 50/75/39
f 29/43/40 28/40/40 40/55/40 41/53/40
f 32/34/41 22/32/41 43/50/41 46/45/41
f 23/41/42 26/37/42 38/58/42 35/62/42
f 24/42/43 23/41/43 35/62/43 36/65/43
f 21/33/44 31/35/44 45/46/44 44/68/44
f 47/76/45 50/77/45 49/78/45 48/79/45
f 50/77/46 47/76/46 66/80/46 65/81/46
f 43/50/47 42/49/47 54/61/47 55/73/47
f 60/72/48 64/82/48 61/83/48 59/84/48
f 54/61/49 53/60/49 63/85/49 64/82/49
f 57/64/50 52/63/50 62/86/50 66/87/50
f 55/73/51 54/61/51 64/82/51 60/72/51
f 52/63/52 51/74/52 61/88/52 62/86/52
f 51/74/53 58/89/53 59/90/53 61/88/53
f 53/60/54 56/71/54 65/91/54 63/85/54
f 62/92/55 63/93/55 65/81/55 66/80/55
f 61/83/56 64/82/56 63/93/56 62/92/56
f 40/55/57 50/75/57 65/91/57 56/71/57
f 47/66/58 35/62/58 57/64/58 66/87/58
f 37/57/59 44/59/59 58/89/59 51/74/59
